<svg width="35" height="32" viewBox="0 0 35 32" fill="none" xmlns="http://www.w3.org/2000/svg">
<path d="M33.1636 4.07273H26.7636V0H24.4364V4.07273H10.4727V0H8.14546V4.07273H1.74545C1.2827 4.07327 0.839047 4.25733 0.511827 4.58455C0.184608 4.91177 0.000538942 5.35542 0 5.81818V30.2545C0.000538942 30.7173 0.184608 31.161 0.511827 31.4882C0.839047 31.8154 1.2827 31.9995 1.74545 32H33.1636C33.6264 31.9995 34.07 31.8154 34.3973 31.4882C34.7245 31.161 34.9086 30.7173 34.9091 30.2545V5.81818C34.9086 5.35542 34.7245 4.91177 34.3973 4.58455C34.07 4.25733 33.6264 4.07327 33.1636 4.07273ZM32.5818 29.6727H2.32727V6.4H8.14546V9.30909H10.4727V6.4H24.4364V9.30909H26.7636V6.4H32.5818V29.6727Z" fill="#CACBCD"/>
<path d="M9.30909 13.3818H6.98182V15.7091H9.30909V13.3818Z" fill="#CACBCD"/>
<path d="M15.7091 13.3818H13.3818V15.7091H15.7091V13.3818Z" fill="#CACBCD"/>
<path d="M21.5273 13.3818H19.2V15.7091H21.5273V13.3818Z" fill="#CACBCD"/>
<path d="M27.9273 13.3818H25.6V15.7091H27.9273V13.3818Z" fill="#CACBCD"/>
<path d="M9.30909 18.6182H6.98182V20.9454H9.30909V18.6182Z" fill="#CACBCD"/>
<path d="M15.7091 18.6182H13.3818V20.9454H15.7091V18.6182Z" fill="#CACBCD"/>
<path d="M21.5273 18.6182H19.2V20.9454H21.5273V18.6182Z" fill="#CACBCD"/>
<path d="M27.9273 18.6182H25.6V20.9454H27.9273V18.6182Z" fill="#CACBCD"/>
<path d="M9.30909 23.8545H6.98182V26.1818H9.30909V23.8545Z" fill="#CACBCD"/>
<path d="M15.7091 23.8545H13.3818V26.1818H15.7091V23.8545Z" fill="#CACBCD"/>
<path d="M21.5273 23.8545H19.2V26.1818H21.5273V23.8545Z" fill="#CACBCD"/>
<path d="M27.9273 23.8545H25.6V26.1818H27.9273V23.8545Z" fill="#CACBCD"/>
</svg>
