<svg width="36" height="50" viewBox="0 0 36 50" fill="none" xmlns="http://www.w3.org/2000/svg">
<path d="M0.048 41.412V39.6H6.696V41.412H4.38V48H2.352V41.412H0.048ZM7.13925 46.38L7.28325 44.832H11.4473L11.5793 46.38H7.13925ZM9.33525 42.684L8.15925 45.396L8.25525 45.84L7.21125 48H4.91925L9.33525 39.072L13.7633 48H11.4593L10.4513 45.924L10.5233 45.408L9.33525 42.684ZM14.9675 45.048C15.1355 45.352 15.3235 45.616 15.5315 45.84C15.7475 46.064 15.9795 46.236 16.2275 46.356C16.4835 46.476 16.7515 46.536 17.0315 46.536C17.3275 46.536 17.5715 46.464 17.7635 46.32C17.9555 46.168 18.0515 45.964 18.0515 45.708C18.0515 45.492 17.9955 45.32 17.8835 45.192C17.7715 45.056 17.5915 44.928 17.3435 44.808C17.0955 44.688 16.7675 44.552 16.3595 44.4C16.1595 44.328 15.9275 44.228 15.6635 44.1C15.4075 43.972 15.1635 43.808 14.9315 43.608C14.6995 43.4 14.5075 43.152 14.3555 42.864C14.2035 42.568 14.1275 42.212 14.1275 41.796C14.1275 41.3 14.2555 40.872 14.5115 40.512C14.7755 40.152 15.1275 39.88 15.5675 39.696C16.0155 39.504 16.5115 39.408 17.0555 39.408C17.6155 39.408 18.0995 39.5 18.5075 39.684C18.9235 39.868 19.2675 40.1 19.5395 40.38C19.8115 40.66 20.0195 40.944 20.1635 41.232L18.6155 42.096C18.4955 41.896 18.3555 41.724 18.1955 41.58C18.0435 41.428 17.8715 41.312 17.6795 41.232C17.4955 41.144 17.2955 41.1 17.0795 41.1C16.7915 41.1 16.5715 41.164 16.4195 41.292C16.2675 41.412 16.1915 41.564 16.1915 41.748C16.1915 41.94 16.2635 42.108 16.4075 42.252C16.5595 42.396 16.7715 42.528 17.0435 42.648C17.3235 42.768 17.6595 42.896 18.0515 43.032C18.3475 43.144 18.6235 43.276 18.8795 43.428C19.1355 43.572 19.3595 43.748 19.5515 43.956C19.7515 44.164 19.9075 44.404 20.0195 44.676C20.1315 44.948 20.1875 45.26 20.1875 45.612C20.1875 46.036 20.0995 46.416 19.9235 46.752C19.7555 47.08 19.5235 47.356 19.2275 47.58C18.9395 47.804 18.6075 47.972 18.2315 48.084C17.8635 48.204 17.4835 48.264 17.0915 48.264C16.5475 48.264 16.0395 48.168 15.5675 47.976C15.1035 47.776 14.6995 47.508 14.3555 47.172C14.0115 46.836 13.7435 46.468 13.5515 46.068L14.9675 45.048ZM20.9435 39.6H23.0435V48H20.9435V39.6ZM25.8995 39.6H28.2755L24.8675 43.536L28.4555 48H25.9955L22.4555 43.596L25.8995 39.6ZM29.6581 45.048C29.8261 45.352 30.0141 45.616 30.2221 45.84C30.4381 46.064 30.6701 46.236 30.9181 46.356C31.1741 46.476 31.4421 46.536 31.7221 46.536C32.0181 46.536 32.2621 46.464 32.4541 46.32C32.6461 46.168 32.7421 45.964 32.7421 45.708C32.7421 45.492 32.6861 45.32 32.5741 45.192C32.4621 45.056 32.2821 44.928 32.0341 44.808C31.7861 44.688 31.4581 44.552 31.0501 44.4C30.8501 44.328 30.6181 44.228 30.3541 44.1C30.0981 43.972 29.8541 43.808 29.6221 43.608C29.3901 43.4 29.1981 43.152 29.0461 42.864C28.8941 42.568 28.8181 42.212 28.8181 41.796C28.8181 41.3 28.9461 40.872 29.2021 40.512C29.4661 40.152 29.8181 39.88 30.2581 39.696C30.7061 39.504 31.2021 39.408 31.7461 39.408C32.3061 39.408 32.7901 39.5 33.1981 39.684C33.6141 39.868 33.9581 40.1 34.2301 40.38C34.5021 40.66 34.7101 40.944 34.8541 41.232L33.3061 42.096C33.1861 41.896 33.0461 41.724 32.8861 41.58C32.7341 41.428 32.5621 41.312 32.3701 41.232C32.1861 41.144 31.9861 41.1 31.7701 41.1C31.4821 41.1 31.2621 41.164 31.1101 41.292C30.9581 41.412 30.8821 41.564 30.8821 41.748C30.8821 41.94 30.9541 42.108 31.0981 42.252C31.2501 42.396 31.4621 42.528 31.7341 42.648C32.0141 42.768 32.3501 42.896 32.7421 43.032C33.0381 43.144 33.3141 43.276 33.5701 43.428C33.8261 43.572 34.0501 43.748 34.2421 43.956C34.4421 44.164 34.5981 44.404 34.7101 44.676C34.8221 44.948 34.8781 45.26 34.8781 45.612C34.8781 46.036 34.7901 46.416 34.6141 46.752C34.4461 47.08 34.2141 47.356 33.9181 47.58C33.6301 47.804 33.2981 47.972 32.9221 48.084C32.5541 48.204 32.1741 48.264 31.7821 48.264C31.2381 48.264 30.7301 48.168 30.2581 47.976C29.7941 47.776 29.3901 47.508 29.0461 47.172C28.7021 46.836 28.4341 46.468 28.2421 46.068L29.6581 45.048Z" fill="#5F6068"/>
<path d="M34.6849 3.11874L23.52 0L12.3225 3.14989L1.90943 0.199976C1.68629 0.136755 1.45152 0.126068 1.22355 0.168757C0.99558 0.211446 0.780631 0.306346 0.595591 0.446002C0.410552 0.585657 0.260463 0.766262 0.15712 0.973625C0.0537771 1.18099 -5.05116e-06 1.40946 3.55817e-10 1.64108V27.1512C0.00113449 27.5421 0.129351 27.9221 0.36536 28.2339C0.60137 28.5458 0.932409 28.7727 1.30868 28.8805L12.32 32L23.5223 28.8488L34.0961 31.8024C34.319 31.8647 34.5533 31.8746 34.7807 31.8313C35.0081 31.788 35.2224 31.6928 35.4068 31.553C35.5912 31.4133 35.7407 31.2328 35.8436 31.0257C35.9465 30.8187 36.0001 30.5906 36 30.3594V4.84984C35.999 4.45776 35.8701 4.07667 35.6328 3.7643C35.3955 3.45194 35.0627 3.22531 34.6849 3.11874ZM11.025 29.1415L2.4 26.698V2.83023L11.025 5.27369V29.1415ZM22.3211 26.6963L13.425 29.1988V5.32971L22.3211 2.82723V26.6963ZM33.6 29.1747L24.7211 26.6949V2.82416L33.6 5.3041V29.1747Z" fill="#5F6068"/>
</svg>
