<svg width="36" height="52" viewBox="0 0 36 52" fill="none" xmlns="http://www.w3.org/2000/svg">
<path d="M33.71 17.2901L18.71 2.29006C18.5226 2.10381 18.2692 1.99927 18.005 1.99927C17.7408 1.99927 17.4874 2.10381 17.3 2.29006L2.3 17.2901C2.13617 17.4814 2.05056 17.7274 2.06029 17.9791C2.07001 18.2308 2.17434 18.4695 2.35243 18.6476C2.53053 18.8257 2.76927 18.93 3.02094 18.9398C3.27262 18.9495 3.5187 18.8639 3.71 18.7001L18 4.41006L32.29 18.7101C32.4813 18.8739 32.7274 18.9595 32.979 18.9498C33.2307 18.9401 33.4695 18.8357 33.6476 18.6576C33.8257 18.4795 33.93 18.2408 33.9397 17.9891C33.9494 17.7374 33.8638 17.4914 33.7 17.3001L33.71 17.2901Z" fill="#CACBCD"/>
<path d="M28 32H23V22H13V32H8V18L6 20V32C6 32.5304 6.21071 33.0392 6.58579 33.4142C6.96086 33.7893 7.46957 34 8 34H15V24H21V34H28C28.5304 34 29.0391 33.7893 29.4142 33.4142C29.7893 33.0392 30 32.5304 30 32V19.76L28 17.76V32Z" fill="#CACBCD"/>
<path d="M1.452 46.484H7.812V44.66H1.452V46.484ZM6.528 41.6V50H8.556V41.6H6.528ZM0.888 41.6V50H2.916V41.6H0.888ZM11.3896 45.8C11.3896 45.304 11.4856 44.868 11.6776 44.492C11.8776 44.108 12.1536 43.808 12.5056 43.592C12.8656 43.376 13.2856 43.268 13.7656 43.268C14.2536 43.268 14.6736 43.376 15.0256 43.592C15.3776 43.808 15.6496 44.108 15.8416 44.492C16.0336 44.868 16.1296 45.304 16.1296 45.8C16.1296 46.296 16.0296 46.736 15.8296 47.12C15.6376 47.496 15.3616 47.792 15.0016 48.008C14.6496 48.224 14.2376 48.332 13.7656 48.332C13.2856 48.332 12.8656 48.224 12.5056 48.008C12.1536 47.792 11.8776 47.496 11.6776 47.12C11.4856 46.736 11.3896 46.296 11.3896 45.8ZM9.24159 45.8C9.24159 46.448 9.34959 47.044 9.56559 47.588C9.78959 48.132 10.1016 48.604 10.5016 49.004C10.9096 49.404 11.3896 49.716 11.9416 49.94C12.4936 50.156 13.1016 50.264 13.7656 50.264C14.4216 50.264 15.0256 50.156 15.5776 49.94C16.1296 49.716 16.6056 49.404 17.0056 49.004C17.4136 48.604 17.7256 48.132 17.9416 47.588C18.1656 47.044 18.2776 46.448 18.2776 45.8C18.2776 45.152 18.1656 44.56 17.9416 44.024C17.7176 43.488 17.4016 43.024 16.9936 42.632C16.5856 42.24 16.1056 41.94 15.5536 41.732C15.0096 41.516 14.4136 41.408 13.7656 41.408C13.1256 41.408 12.5296 41.516 11.9776 41.732C11.4256 41.94 10.9456 42.24 10.5376 42.632C10.1296 43.024 9.80959 43.488 9.57759 44.024C9.35359 44.56 9.24159 45.152 9.24159 45.8ZM21.1371 45.716L23.4291 49.22L25.7331 45.716L26.2371 50H28.3731L27.0171 41.18L23.4291 46.304L19.8531 41.18L18.4971 50H20.6331L21.1371 45.716ZM30.4086 50H34.6446V48.332H30.4086V50ZM30.4086 43.268H34.6446V41.6H30.4086V43.268ZM30.4086 46.4H34.4046V44.768H30.4086V46.4ZM29.0646 41.6V50H31.0086V41.6H29.0646Z" fill="#CACBCD"/>
</svg>
