<svg width="44" height="41" viewBox="0 0 44 41" fill="none" xmlns="http://www.w3.org/2000/svg">
<path d="M43.0984 27.9066H30.25V20.0491C30.25 19.4546 29.8443 18.9683 29.3484 18.9683H14.6426C14.1467 18.9683 13.741 19.4546 13.741 20.0491V27.9066H0.901639C0.405738 27.9066 0 28.393 0 28.9874V39.0174C0 39.6118 0.405738 40.0982 0.901639 40.0982H43.0984C43.5943 40.0982 44 39.6118 44 39.0174V28.9874C44 28.393 43.5943 27.9066 43.0984 27.9066ZM42.1967 37.9366H1.80328V30.0682H14.6516C15.1475 30.0682 15.5533 29.5819 15.5533 28.9874V21.1299H28.4557V28.9874C28.4557 29.5819 28.8615 30.0682 29.3574 30.0682H42.1967V37.9366Z" fill="#CACBCD"/>
<path d="M15.959 6.63621L18.7992 9.10047L17.7623 13.0346C17.6451 13.4778 17.7713 13.9641 18.0869 14.2343C18.4025 14.5045 18.8262 14.5154 19.1418 14.2452L21.991 11.8457L24.8402 14.2452C25.0025 14.3748 25.1828 14.4397 25.3631 14.4397C25.5525 14.4397 25.7418 14.3749 25.8951 14.2343C26.2016 13.9641 26.3369 13.4778 26.2197 13.0346L25.1828 9.10047L28.0229 6.63621C28.3385 6.3552 28.4648 5.86883 28.3475 5.4257C28.2303 4.98256 27.8787 4.67993 27.491 4.67993H23.9475L22.8475 0.734953C22.7213 0.291819 22.3787 0 21.991 0C21.6033 0 21.2607 0.291819 21.1344 0.734953L20.0344 4.67993H16.491C16.1033 4.67993 15.7516 4.98256 15.6344 5.4257C15.5082 5.86883 15.6434 6.36601 15.959 6.63621ZM20.7016 6.84156C21.0893 6.84156 21.432 6.54974 21.5582 6.10661L22.009 4.4962L22.4598 6.10661C22.5861 6.54974 22.9287 6.84156 23.3164 6.84156H24.7229L23.6049 7.8143C23.2893 8.0845 23.1541 8.57087 23.2713 9.01401L23.7041 10.6352L22.5229 9.64088C22.3607 9.51118 22.1803 9.44633 22 9.44633C21.8197 9.44633 21.6393 9.51118 21.4951 9.64088L20.3139 10.6352L20.7467 9.01401C20.8639 8.57087 20.7287 8.0845 20.4131 7.8143L19.2951 6.84156H20.7016Z" fill="#CACBCD"/>
</svg>
