<svg width="36" height="32" viewBox="0 0 36 32" fill="none" xmlns="http://www.w3.org/2000/svg">
<path d="M34.6849 3.11874L23.52 0L12.3225 3.14989L1.90943 0.199976C1.68629 0.136755 1.45152 0.126068 1.22355 0.168757C0.99558 0.211446 0.780631 0.306346 0.595591 0.446002C0.410552 0.585657 0.260463 0.766262 0.15712 0.973625C0.0537771 1.18099 -5.05116e-06 1.40946 3.55817e-10 1.64108V27.1512C0.00113449 27.5421 0.129351 27.9221 0.36536 28.2339C0.60137 28.5458 0.932409 28.7727 1.30868 28.8805L12.32 32L23.5223 28.8488L34.0961 31.8024C34.319 31.8647 34.5533 31.8746 34.7807 31.8313C35.0081 31.788 35.2224 31.6928 35.4068 31.553C35.5912 31.4133 35.7407 31.2328 35.8436 31.0257C35.9465 30.8187 36.0001 30.5906 36 30.3594V4.84984C35.999 4.45776 35.8701 4.07667 35.6328 3.7643C35.3955 3.45194 35.0627 3.22531 34.6849 3.11874ZM11.025 29.1415L2.4 26.698V2.83023L11.025 5.27369V29.1415ZM22.3211 26.6963L13.425 29.1988V5.32971L22.3211 2.82723V26.6963ZM33.6 29.1747L24.7211 26.6949V2.82416L33.6 5.3041V29.1747Z" fill="#5F6068"/>
</svg>
